<?xml version="1.0" standalone="no"?>
<!DOCTYPE svg PUBLIC "-//W3C//DTD SVG 20010904//EN"
 "http://www.w3.org/TR/2001/REC-SVG-20010904/DTD/svg10.dtd">
<svg version="1.0" xmlns="http://www.w3.org/2000/svg"
 width="2560.000000pt" height="1440.000000pt" viewBox="0 0 2560.000000 1440.000000"
 preserveAspectRatio="xMidYMid meet">

<g transform="translate(0.000000,1440.000000) scale(0.100000,-0.100000)"
fill="#000000" stroke="none">
<path d="M22589 14363 c-15 -48 -63 -145 -97 -195 -14 -22 -21 -42 -16 -47 5
-4 38 -18 74 -30 250 -88 411 -300 385 -511 -6 -54 -44 -183 -66 -227 -9 -16
-8 -26 5 -44 21 -31 21 -108 -1 -139 -9 -14 -30 -37 -46 -52 -30 -28 -30 -28
-11 -50 10 -13 22 -25 25 -28 4 -3 18 -30 33 -61 22 -46 26 -71 27 -145 1 -97
-10 -154 -46 -256 -70 -194 -190 -369 -330 -481 l-50 -40 35 7 c178 37 301 26
359 -31 8 -8 14 -29 14 -46 0 -18 2 -26 5 -19 3 10 7 10 19 1 12 -10 16 -10
24 2 5 8 9 9 9 3 0 -5 -5 -15 -11 -21 -8 -8 -5 -15 9 -24 30 -22 43 -56 36
-94 -7 -38 -45 -70 -75 -62 -21 6 -26 -8 -6 -16 10 -4 10 -6 0 -6 -7 -1 -13
-6 -13 -13 0 -6 9 -3 20 7 11 10 23 15 27 11 4 -4 -7 -20 -25 -37 -18 -16 -32
-33 -32 -36 0 -3 16 -3 35 0 19 3 45 0 58 -6 21 -11 102 -86 95 -88 -1 0 -13
-2 -26 -3 -37 -4 -51 -25 -28 -42 19 -13 18 -14 -12 -14 -18 0 -32 5 -32 10 0
6 -4 10 -10 10 -5 0 -10 -7 -10 -15 0 -10 10 -15 34 -15 19 0 38 -4 41 -10 4
-6 -6 -10 -23 -10 -29 0 -62 -26 -62 -48 0 -7 7 -12 15 -12 8 0 15 6 15 13 0
9 12 11 39 9 32 -3 40 0 43 14 3 17 6 16 28 -6 l25 -25 -67 -3 c-65 -3 -68 -4
-68 -27 0 -15 6 -25 14 -25 8 0 16 -7 20 -15 4 -10 -1 -15 -14 -15 -11 0 -20
-4 -20 -10 0 -5 -7 -10 -17 -10 -15 0 -15 -1 0 -18 10 -10 17 -24 17 -30 0 -7
9 -12 21 -12 15 0 19 -4 15 -16 -3 -9 -6 -20 -6 -25 0 -5 -7 -9 -15 -9 -8 0
-15 -7 -15 -16 0 -14 8 -16 43 -12 43 5 43 5 39 -23 -4 -26 -8 -29 -43 -29
-29 0 -39 4 -39 16 0 9 -7 14 -17 12 -25 -5 -28 -29 -4 -35 12 -3 21 -9 21
-14 0 -5 18 -9 40 -9 29 0 40 -4 40 -15 0 -11 11 -15 40 -15 36 0 40 -3 40
-24 0 -20 -6 -25 -30 -28 -29 -3 -29 -3 -11 -27 10 -13 29 -24 42 -25 23 -1
24 -4 21 -53 l-4 -53 31 0 c27 0 31 -3 31 -29 0 -32 14 -47 50 -54 14 -3 -4
-3 -39 0 -39 2 -68 -1 -77 -8 -12 -10 -14 -1 -14 55 0 71 -3 74 -57 60 -32 -9
-29 -30 9 -67 l32 -32 -45 -5 c-27 -3 -39 -8 -31 -13 6 -5 12 -21 12 -38 0
-25 4 -29 28 -29 36 0 52 -16 52 -52 0 -24 4 -28 28 -28 36 0 52 -16 52 -52 0
-24 4 -28 29 -28 17 0 33 -4 36 -10 3 -5 22 -10 41 -10 31 0 34 -2 34 -30 0
-16 5 -30 10 -30 6 0 10 14 10 30 0 17 -4 30 -10 30 -5 0 -10 5 -10 11 0 21
45 4 48 -18 2 -13 9 -23 16 -23 20 0 66 -44 66 -62 0 -9 11 -19 25 -22 33 -8
32 -24 -2 -28 l-28 -3 28 -26 c15 -15 27 -31 27 -38 0 -6 13 -11 28 -11 36 0
52 -16 52 -52 0 -24 4 -28 28 -28 15 0 33 -5 40 -12 9 -9 12 -7 12 10 0 18 6
22 35 22 39 0 75 -25 75 -52 0 -10 4 -18 9 -18 5 0 22 -5 38 -12 l28 -12 -40
-5 -40 -6 28 -26 c15 -15 27 -31 27 -38 0 -6 13 -11 28 -11 36 0 52 -16 52
-52 0 -24 4 -28 28 -28 15 0 33 -5 40 -12 9 -9 12 -9 12 0 0 19 28 14 40 -7 5
-11 19 -23 30 -26 11 -3 20 -13 20 -21 0 -8 7 -14 15 -14 9 0 15 9 15 23 0 27
21 48 68 67 18 7 32 20 32 29 0 37 40 53 66 26 17 -17 34 -20 34 -6 0 6 21 1
46 -11 33 -14 60 -19 90 -15 30 3 47 0 55 -9 6 -8 20 -14 30 -14 16 0 19 -8
19 -42 0 -40 -3 -44 -40 -62 -22 -11 -40 -22 -40 -25 0 -4 15 -14 33 -24 25
-14 58 -18 160 -18 70 -1 127 -3 127 -6 0 -2 -14 -19 -31 -36 -30 -29 -30 -31
-11 -38 11 -4 23 -12 27 -18 3 -6 10 -9 15 -6 5 3 19 1 31 -6 20 -10 20 -12 5
-27 -12 -13 -40 -18 -106 -20 l-90 -4 0 27 c0 14 -6 33 -14 41 -17 16 -66 19
-66 4 0 -5 14 -10 30 -10 25 0 30 -4 30 -25 0 -14 8 -34 18 -44 33 -36 162
-56 162 -26 0 17 11 20 26 6 5 -6 38 -14 74 -18 60 -7 65 -10 66 -33 2 -41 -6
-50 -47 -50 -35 0 -39 3 -39 25 0 19 -5 25 -22 25 -26 -1 -58 -22 -58 -39 0
-6 8 -11 18 -11 9 0 30 -7 46 -15 15 -8 36 -15 45 -16 11 0 9 -3 -6 -9 -32
-13 -28 -17 12 -12 21 3 41 13 50 25 10 14 15 17 15 7 0 -25 28 23 33 56 3 17
9 40 15 50 18 33 48 128 47 149 0 13 -6 20 -17 19 -10 -1 -15 2 -12 7 3 5 0
17 -5 28 -6 10 -12 35 -15 54 -9 73 91 137 165 106 57 -23 84 -95 57 -154 -9
-21 -8 -28 5 -43 10 -9 40 -45 69 -79 44 -54 53 -61 67 -50 14 11 14 10 3 -5
-14 -18 -7 -43 9 -32 5 3 8 2 7 -3 -1 -4 4 -18 12 -30 11 -17 20 -20 46 -16
46 8 82 -3 110 -34 l24 -26 0 27 c0 15 -4 25 -9 21 -5 -3 -13 -1 -16 5 -4 6
-1 9 7 8 11 -3 13 413 16 2405 l2 2407 -1499 0 -1499 0 -13 -37z m2005 -299
c20 -19 20 -28 1 -44 -33 -27 -74 17 -43 48 16 16 23 15 42 -4z m802 -49 c15
-23 15 -27 0 -50 -21 -32 -59 -33 -80 -3 -20 29 -20 34 4 58 27 27 56 25 76
-5z m-1414 -122 c43 -39 7 -123 -54 -123 -58 0 -91 78 -51 122 20 23 80 24
105 1z m-518 -159 c9 -8 16 -19 16 -24 0 -13 -30 -40 -44 -40 -17 0 -36 21
-36 40 0 19 19 40 36 40 7 0 20 -7 28 -16z m1323 -120 c7 -18 -6 -45 -24 -51
-6 -2 -18 3 -27 12 -12 12 -13 21 -6 36 13 23 48 25 57 3z m603 -124 c-8 -5
-34 -12 -58 -16 -23 -3 -46 -11 -50 -18 -4 -6 -38 -27 -77 -46 -38 -19 -88
-51 -110 -70 -22 -19 -55 -46 -73 -60 -18 -14 -46 -46 -63 -72 -17 -27 -35
-48 -39 -48 -5 0 -12 -10 -15 -21 -4 -12 -22 -47 -40 -78 -19 -32 -37 -70 -41
-87 -3 -16 -15 -55 -25 -86 -11 -32 -19 -85 -19 -118 0 -44 -3 -59 -12 -54 -7
4 -8 3 -4 -5 5 -7 9 -38 10 -69 l2 -57 -22 51 c-100 228 -19 544 180 708 92
75 211 133 306 149 53 9 165 7 150 -3z m-1512 -59 c8 -4 12 -19 10 -32 -2 -19
-9 -24 -33 -24 -33 0 -45 25 -25 50 14 17 29 19 48 6z m582 -6 c14 -17 4 -55
-15 -55 -28 0 -45 13 -45 35 0 34 38 47 60 20z m-952 -297 c28 -28 1 -75 -38
-63 -20 6 -25 29 -14 59 7 19 35 21 52 4z m782 -153 c20 -25 8 -50 -25 -50
-31 0 -43 20 -31 51 7 18 40 18 56 -1z m504 -411 c3 -8 2 -12 -4 -9 -6 3 -10
10 -10 16 0 14 7 11 14 -7z m-1144 -34 c30 -30 27 -83 -6 -109 -15 -12 -37
-21 -49 -21 -38 0 -75 37 -75 76 0 45 29 74 75 74 22 0 43 -8 55 -20z m-494
-1795 c18 -14 18 -14 -8 -15 -18 0 -28 5 -28 15 0 19 11 19 36 0z m78 -71 c25
-9 19 -24 -9 -24 -16 0 -25 6 -25 15 0 16 9 19 34 9z m391 -334 c3 -5 -1 -10
-9 -10 -9 0 -16 5 -16 10 0 6 4 10 9 10 6 0 13 -4 16 -10z m783 -117 c-16 -2
-40 -2 -55 0 -16 2 -3 4 27 4 30 0 43 -2 28 -4z m-108 -38 c0 -8 -7 -15 -15
-15 -8 0 -15 7 -15 15 0 8 7 15 15 15 8 0 15 -7 15 -15z m127 -1 c-3 -3 -12
-4 -19 -1 -8 3 -5 6 6 6 11 1 17 -2 13 -5z m-27 -60 c0 -6 -36 -15 -85 -20
-89 -10 -90 -9 -79 33 5 17 15 23 48 25 44 3 116 -20 116 -38z m-455 -24 c3
-5 -1 -10 -9 -10 -9 0 -16 5 -16 10 0 6 4 10 9 10 6 0 13 -4 16 -10z m165
-100 c0 -5 -2 -10 -4 -10 -3 0 -8 5 -11 10 -3 6 -1 10 4 10 6 0 11 -4 11 -10z
m770 -185 c0 -11 -11 -15 -40 -15 -29 0 -40 4 -40 15 0 11 11 15 40 15 29 0
40 -4 40 -15z m187 -30 c0 -8 -4 -12 -9 -9 -5 3 -6 10 -3 15 9 13 12 11 12 -6z
m283 -31 c0 -8 -19 -13 -24 -6 -3 5 1 9 9 9 8 0 15 -2 15 -3z m-353 -146 c-3
-8 -6 -5 -6 6 -1 11 2 17 5 13 3 -3 4 -12 1 -19z m-2 -27 c3 -5 1 -12 -5 -16
-5 -3 -10 1 -10 9 0 18 6 21 15 7z"/>
<path d="M5570 13262 c-345 -98 -757 -395 -961 -694 -54 -78 -114 -201 -136
-277 -17 -57 -24 -67 -94 -126 -287 -243 -502 -568 -644 -976 -107 -308 -159
-676 -136 -971 12 -154 44 -325 83 -448 l24 -75 -345 0 c-379 0 -484 -9 -761
-66 -230 -46 -480 -127 -480 -155 0 -21 13 -18 176 35 256 85 525 132 869 152
252 14 565 1 565 -25 0 -7 31 -75 69 -152 38 -76 68 -140 67 -141 -1 -2 -43
-10 -92 -18 -191 -33 -400 -95 -534 -158 -41 -20 -77 -34 -79 -31 -7 7 41 53
88 85 39 26 42 29 20 29 -93 0 -197 -67 -208 -134 -6 -36 -13 -43 -95 -92 -95
-58 -308 -208 -328 -231 -8 -10 -8 -17 0 -25 8 -8 30 3 79 40 90 67 334 222
349 222 7 0 15 -8 20 -17 6 -15 8 -12 13 12 7 34 24 44 201 118 182 77 387
135 541 153 l56 6 56 -80 c167 -238 366 -441 620 -630 62 -46 113 -85 115 -87
2 -2 -16 -3 -40 -3 -53 1 -90 -17 -145 -72 -46 -46 -93 -130 -93 -166 0 -16
-19 -33 -75 -68 -41 -26 -132 -90 -202 -143 -70 -52 -136 -98 -145 -102 -9 -3
-18 -10 -20 -16 -5 -16 -324 -294 -422 -367 -164 -123 -368 -212 -583 -253
l-92 -17 5 -67 c3 -36 9 -97 13 -134 7 -66 7 -69 -18 -85 -18 -13 -45 -17 -99
-15 -60 1 -85 7 -137 32 -67 33 -81 49 -109 124 -10 26 -21 47 -26 47 -14 0
-103 -79 -138 -122 -19 -24 -51 -77 -71 -118 -35 -73 -36 -78 -36 -191 0 -113
1 -116 38 -191 62 -127 176 -215 329 -254 85 -22 247 -15 341 15 92 30 182 84
242 147 l50 53 28 -25 c101 -87 197 -4 205 177 l4 86 67 11 c37 7 107 23 155
37 49 14 90 24 92 22 2 -2 -5 -32 -16 -68 -34 -111 -68 -308 -81 -467 -28
-348 40 -712 196 -1039 53 -111 55 -119 55 -197 0 -142 23 -249 63 -293 43
-49 125 -16 207 82 38 46 131 220 145 273 6 22 6 22 -19 -3 -55 -55 -90 -14
-84 98 3 62 8 80 31 110 15 21 37 37 47 37 28 0 50 -39 50 -90 1 -85 20 -16
32 112 8 89 8 185 -1 353 -21 421 -14 607 26 785 l17 75 8 -115 c4 -63 12
-142 17 -175 4 -33 6 -110 3 -170 -7 -160 29 -281 117 -393 20 -26 54 -89 75
-140 61 -146 116 -221 116 -159 0 13 5 49 11 79 l11 55 77 -25 c106 -35 257
-36 351 -3 88 31 169 82 248 155 56 52 71 60 40 21 -5 -5 -44 -62 -88 -125
-148 -215 -302 -392 -419 -482 l-34 -26 34 -44 c18 -23 36 -45 40 -48 3 -3 25
-27 49 -55 23 -27 93 -102 155 -166 105 -109 116 -125 173 -241 76 -155 126
-208 196 -208 37 0 50 6 77 32 80 80 113 214 113 458 0 158 -3 184 -26 273
-15 53 -47 149 -72 211 -26 63 -46 117 -46 120 0 4 17 -2 38 -13 98 -50 246
-71 358 -52 194 34 431 183 562 353 44 58 102 166 102 191 0 22 -134 117 -165
117 -14 0 -80 -18 -148 -41 -141 -47 -188 -48 -283 -5 -77 35 -127 77 -179
150 -67 94 -69 104 -38 183 14 38 29 82 34 99 6 19 24 41 45 55 44 30 90 98
110 164 19 62 29 261 20 377 -6 71 -11 87 -26 91 -39 10 -68 85 -89 232 -11
77 -30 171 -42 208 -20 60 -21 73 -10 104 11 29 11 37 0 44 -10 6 -11 9 -1 9
6 0 12 7 12 15 0 8 -5 15 -11 15 -6 0 -10 21 -9 53 2 77 1 89 -10 82 -6 -4 -7
1 -3 11 4 11 8 13 11 6 2 -7 18 -12 35 -12 18 -1 46 -7 62 -15 l30 -14 -30 5
c-27 4 -28 4 -7 -6 16 -7 30 -7 42 0 24 13 40 13 20 0 -11 -7 3 -10 48 -10 34
0 63 -3 63 -7 6 -36 4 -91 -3 -87 -4 3 -11 -2 -14 -10 -6 -15 -41 -32 -56 -28
-5 1 -7 -1 -6 -6 2 -4 -5 -18 -15 -32 -15 -22 -22 -21 -18 3 0 4 -4 7 -9 7 -6
0 -10 -5 -10 -11 0 -8 -6 -7 -17 2 -15 13 -15 12 -2 -8 10 -16 16 -19 22 -10
5 7 6 2 2 -13 -4 -14 -12 -29 -18 -35 -7 -7 -8 -6 -3 2 4 7 3 21 -3 30 -8 14
-9 11 -6 -16 3 -23 -3 -42 -17 -61 -15 -21 -18 -32 -10 -45 7 -14 11 -15 18
-4 5 9 142 -122 488 -472 265 -266 422 -424 351 -349 -72 74 -286 292 -475
483 -190 191 -346 351 -348 355 -4 13 57 99 94 132 38 33 84 40 104 15 17 -21
27 -19 25 6 -1 11 -14 28 -29 39 -27 17 -28 18 -7 25 11 3 25 4 29 1 5 -3 9 2
9 10 0 11 -7 14 -21 12 -18 -4 -21 1 -21 28 0 18 3 30 8 27 4 -2 7 -11 7 -19
0 -8 5 -12 10 -9 6 4 7 11 4 17 -5 7 7 9 37 4 489 -70 902 -37 1239 101 235
97 418 243 512 411 17 30 37 52 46 52 32 0 263 -120 375 -194 216 -143 420
-335 534 -502 31 -46 60 -84 65 -84 42 0 -20 107 -146 250 -116 133 -265 260
-436 373 -107 70 -284 164 -353 187 -29 9 -37 16 -32 29 3 9 13 42 22 74 19
67 14 65 153 37 392 -80 882 -370 1121 -665 29 -36 58 -65 66 -65 66 0 -142
227 -350 381 -260 194 -609 353 -871 397 l-101 17 -3 106 -2 106 57 64 c356
400 600 1031 620 1608 l6 173 50 47 c164 153 297 585 297 968 0 210 -31 328
-102 388 -157 133 -518 173 -983 109 l-125 -18 -42 32 c-148 109 -446 271
-633 345 -321 125 -665 202 -1004 223 -113 7 -114 7 -130 37 -100 185 -285
399 -386 447 -65 32 -150 36 -235 12z m818 -2092 c247 -50 409 -124 907 -413
453 -264 680 -329 1081 -311 161 8 198 0 243 -51 67 -77 69 -280 5 -536 -67
-268 -189 -523 -407 -849 -84 -125 -90 -138 -88 -181 10 -216 -206 -545 -449
-681 -159 -90 -451 -167 -710 -189 -330 -28 -706 50 -1045 216 -590 289 -915
705 -915 1170 0 99 18 211 45 285 11 27 23 112 31 214 32 406 115 693 264 925
151 232 363 374 625 417 105 18 284 11 413 -16z m-1615 -2777 c8 -10 17 -31
19 -47 2 -23 10 -32 33 -39 46 -15 93 -54 114 -95 28 -56 44 -147 36 -210 -7
-54 -6 -55 17 -48 12 4 28 8 35 8 30 3 24 123 -10 196 l-19 42 23 20 c34 28
65 34 101 19 29 -12 29 -13 9 -20 -25 -10 -25 0 -1 -94 11 -43 20 -104 20
-136 0 -36 5 -59 12 -61 9 -3 9 -19 0 -71 -7 -36 -15 -74 -19 -83 -5 -13 -2
-15 15 -9 28 8 28 -6 0 -33 -30 -27 -67 -36 -103 -22 -24 9 -31 8 -41 -4 -6
-9 -14 -13 -18 -9 -4 4 -4 0 -1 -8 3 -9 -2 -22 -11 -30 -16 -12 -17 -12 -11 4
4 11 3 16 -4 12 -13 -8 -2 -44 21 -70 31 -34 41 -70 28 -106 l-11 -32 -19 22
-18 23 -63 -40 c-116 -75 -165 -95 -249 -100 -70 -4 -78 -7 -78 -25 0 -16 -2
-17 -16 -7 -27 23 -46 82 -35 107 6 13 15 23 21 23 5 0 10 4 10 10 0 5 -3 9
-7 8 -5 -2 -30 6 -57 16 -44 17 -50 17 -57 3 -5 -8 -25 -21 -44 -27 -73 -24
-111 23 -139 169 -19 98 -20 152 -5 220 15 72 37 96 86 94 38 -2 39 -1 66 59
l26 61 -19 25 c-42 52 -18 110 80 191 61 51 121 87 170 102 46 14 96 10 113
-8z m1178 -490 c13 -16 12 -17 -3 -4 -10 7 -18 15 -18 17 0 8 8 3 21 -13z
m-826 -613 c3 -6 -1 -7 -9 -4 -18 7 -21 14 -7 14 6 0 13 -4 16 -10z m-34 -312
c-6 -16 -5 -33 4 -53 30 -72 118 -115 245 -122 76 -5 88 -3 113 17 18 15 27
31 27 51 0 36 16 38 32 4 10 -22 4 -45 -41 -166 -69 -184 -124 -303 -155 -334
-20 -20 -35 -25 -73 -25 -103 0 -210 46 -239 103 -18 35 -18 40 22 332 22 158
30 193 47 208 25 22 30 17 18 -15z m-747 -1300 c25 -111 31 -158 22 -158 -55
0 -97 132 -76 237 7 30 15 51 20 47 4 -5 20 -62 34 -126z"/>
<path d="M6195 10779 c-55 -5 -122 -16 -150 -24 -208 -68 -351 -306 -395 -659
-18 -137 -8 -378 19 -471 11 -38 18 -72 15 -76 -2 -4 19 -12 48 -18 128 -28
331 -110 479 -195 63 -36 63 -36 29 -6 -76 66 -322 175 -458 203 -41 9 -76 18
-79 21 -14 13 -34 133 -42 251 -24 328 41 590 195 785 85 108 159 150 283 161
112 10 170 20 177 30 3 5 -1 8 -8 8 -7 -1 -58 -5 -113 -10z"/>
<path d="M6233 10490 c-95 -57 -158 -268 -134 -443 13 -93 41 -177 77 -228 32
-47 103 -84 142 -74 102 25 182 197 182 390 0 119 -47 270 -97 317 l-26 23 13
-25 c20 -37 18 -148 -3 -188 -25 -46 -59 -60 -91 -38 -42 27 -60 73 -61 153 0
59 4 77 23 102 26 36 20 39 -25 11z"/>
<path d="M8260 9956 c-123 -35 -178 -89 -275 -271 -66 -125 -180 -333 -232
-422 -14 -24 -23 -43 -20 -43 8 0 184 297 267 450 40 74 89 152 109 174 46 49
116 82 208 98 39 6 70 15 67 20 -7 12 -71 8 -124 -6z"/>
<path d="M8256 9839 c4 -6 6 -34 5 -62 -2 -99 -74 -198 -114 -158 -21 21 -12
116 15 171 14 28 22 50 17 50 -18 0 -93 -100 -124 -165 -70 -145 -97 -350 -59
-445 19 -46 38 -60 85 -60 74 0 178 159 220 335 36 152 17 318 -38 340 -9 3
-11 0 -7 -6z"/>
<path d="M5832 9091 c54 -30 143 -51 223 -52 94 -2 108 -10 100 -58 -7 -45 8
-145 35 -235 16 -52 25 -66 40 -66 11 0 20 -5 20 -11 0 -5 4 -7 10 -4 5 3 28
-4 51 -16 36 -18 40 -23 26 -31 -18 -10 -14 -28 6 -28 7 0 6 4 -3 10 -13 8
-12 10 3 10 23 0 32 -4 30 -12 -2 -4 3 -5 10 -2 7 2 21 -3 32 -12 11 -8 14
-12 6 -8 -9 5 -12 3 -7 -5 4 -6 12 -9 17 -5 14 8 50 -26 42 -39 -4 -6 -1 -7 6
-2 9 5 29 -9 57 -38 58 -61 107 -139 93 -148 -7 -4 -5 -8 5 -12 11 -5 22 5 36
33 11 22 20 46 20 54 0 27 58 48 134 49 52 1 94 -7 156 -27 164 -52 321 -33
458 56 64 42 69 43 142 42 57 -1 69 1 50 8 -14 5 -50 10 -80 11 -56 1 -64 -2
-164 -64 -144 -89 -356 -74 -580 41 -116 60 -193 121 -287 227 -121 137 -218
217 -336 277 -42 21 -66 26 -126 26 -62 0 -158 18 -242 45 -11 3 -3 -3 17 -14z"/>
<path d="M6966 8819 c-34 -27 -33 -50 6 -94 42 -49 119 -86 189 -92 48 -5 59
-3 78 16 26 26 26 47 2 87 -55 90 -208 136 -275 83z"/>
<path d="M7726 8810 c-87 -18 -219 -60 -212 -67 2 -2 57 10 123 27 66 16 167
36 224 44 l104 14 -75 0 c-41 0 -115 -8 -164 -18z"/>
<path d="M6270 8656 c0 -2 8 -10 18 -17 15 -13 16 -12 3 4 -13 16 -21 21 -21
13z"/>
<path d="M6305 8561 c-3 -5 0 -13 6 -17 7 -4 9 -3 5 4 -3 5 0 13 6 15 9 4 10
6 1 6 -6 1 -14 -3 -18 -8z"/>
<path d="M6406 8506 c3 -8 14 -16 25 -19 25 -7 24 -3 -6 17 -19 13 -23 13 -19
2z"/>
<path d="M6487 8507 c-3 -7 3 -13 14 -13 13 0 15 3 7 13 -6 7 -12 13 -13 13
-2 0 -5 -6 -8 -13z"/>
<path d="M6340 8461 c0 -6 3 -11 8 -12 4 0 15 -2 25 -4 11 -2 16 0 12 3 -4 4
-10 7 -13 7 -4 0 -13 4 -19 8 -8 5 -13 4 -13 -2z"/>
<path d="M6385 8403 c26 -27 97 -84 79 -63 -12 14 -20 33 -19 42 2 12 -3 15
-18 12 -11 -2 -28 2 -36 8 -9 7 -11 7 -6 1z"/>
<path d="M6518 8313 c7 -3 16 -2 19 1 4 3 -2 6 -13 5 -11 0 -14 -3 -6 -6z"/>
<path d="M6565 8301 c3 -5 -1 -12 -7 -14 -7 -3 -3 -6 10 -6 25 -1 30 14 6 23
-8 3 -13 2 -9 -3z"/>
<path d="M4728 8283 c12 -2 30 -2 40 0 9 3 -1 5 -23 4 -22 0 -30 -2 -17 -4z"/>
<path d="M4648 8264 c-39 -21 -35 -28 5 -8 37 19 44 24 31 24 -5 -1 -21 -8
-36 -16z"/>
<path d="M4800 8276 c0 -2 7 -7 16 -10 8 -3 12 -2 9 4 -6 10 -25 14 -25 6z"/>
<path d="M4544 8188 l-29 -33 33 29 c30 28 37 36 29 36 -2 0 -16 -15 -33 -32z"/>
<path d="M4740 8210 c0 -8 -16 -57 -35 -109 -23 -63 -35 -111 -35 -145 0 -32
4 -46 9 -38 4 8 12 13 17 13 5 0 8 14 7 32 -1 17 -3 43 -4 57 -1 14 13 60 32
102 26 61 30 81 21 90 -9 9 -12 9 -12 -2z"/>
<path d="M4484 8115 c-15 -20 -25 -37 -23 -39 2 -2 16 14 31 35 35 49 28 51
-8 4z"/>
<path d="M4902 8130 c0 -14 2 -19 5 -12 2 6 2 18 0 25 -3 6 -5 1 -5 -13z"/>
<path d="M4912 8060 c0 -19 2 -27 5 -17 2 9 2 25 0 35 -3 9 -5 1 -5 -18z"/>
<path d="M4902 7985 c0 -16 2 -22 5 -12 2 9 2 23 0 30 -3 6 -5 -1 -5 -18z"/>
<path d="M4685 7899 c-4 -6 -5 -12 -2 -15 2 -3 7 2 10 11 7 17 1 20 -8 4z"/>
<path d="M5011 7874 c0 -11 3 -14 6 -6 3 7 2 16 -1 19 -3 4 -6 -2 -5 -13z"/>
<path d="M4646 7843 c-4 -5 -12 -8 -18 -8 -6 0 -13 -11 -15 -24 -2 -14 -2 -23
-1 -20 2 2 14 16 27 32 22 24 27 39 7 20z"/>
<path d="M4971 7787 c-1 -11 -6 -15 -13 -11 -7 5 -8 3 -3 -5 10 -16 29 2 22
21 -4 8 -6 7 -6 -5z"/>
<path d="M4906 7755 c-9 -26 -7 -32 5 -12 6 10 9 21 6 23 -2 3 -7 -2 -11 -11z"/>
<path d="M4925 7734 c-9 -15 -12 -23 -6 -20 11 7 35 46 28 46 -3 0 -12 -12
-22 -26z"/>
<path d="M4930 7706 c0 -2 7 -9 15 -16 13 -11 14 -10 9 4 -5 14 -24 23 -24 12z"/>
<path d="M4865 7680 c-3 -6 1 -7 9 -4 18 7 21 14 7 14 -6 0 -13 -4 -16 -10z"/>
<path d="M4856 7648 c3 -5 10 -6 15 -3 13 9 11 12 -6 12 -8 0 -12 -4 -9 -9z"/>
<path d="M4920 7650 c8 -5 20 -10 25 -10 6 0 3 5 -5 10 -8 5 -19 10 -25 10 -5
0 -3 -5 5 -10z"/>
<path d="M4838 7633 c6 -2 9 -10 5 -16 -11 -18 -12 -38 -2 -31 5 3 7 9 4 14
-3 5 -1 11 5 15 13 8 3 25 -13 24 -9 0 -8 -2 1 -6z"/>
<path d="M4800 7610 c-10 -6 -11 -10 -2 -10 19 0 10 -22 -23 -54 l-30 -29 35
25 c23 17 35 34 35 51 1 15 1 27 1 27 -1 0 -8 -5 -16 -10z"/>
<path d="M4765 7579 c-4 -6 -5 -12 -2 -15 2 -3 7 2 10 11 7 17 1 20 -8 4z"/>
<path d="M4729 7543 c-13 -16 -12 -17 4 -4 16 13 21 21 13 21 -2 0 -10 -8 -17
-17z"/>
<path d="M4694 7522 c3 -5 0 -13 -6 -15 -9 -4 -10 -6 -1 -6 17 -1 25 16 12 25
-7 4 -9 3 -5 -4z"/>
<path d="M4650 7490 c0 -5 5 -10 11 -10 5 0 7 5 4 10 -3 6 -8 10 -11 10 -2 0
-4 -4 -4 -10z"/>
<path d="M4600 7479 c0 -5 5 -7 10 -4 6 3 10 8 10 11 0 2 -4 4 -10 4 -5 0 -10
-5 -10 -11z"/>
<path d="M22925 11890 c-8 -14 3 -30 21 -30 8 0 14 9 14 20 0 21 -24 28 -35
10z"/>
<path d="M22860 11870 c0 -5 5 -10 10 -10 6 0 10 5 10 10 0 6 -4 10 -10 10 -5
0 -10 -4 -10 -10z"/>
<path d="M22893 11823 c-26 -10 -11 -21 27 -20 24 1 40 7 40 15 0 12 -42 16
-67 5z"/>
<path d="M22945 11030 c3 -5 8 -10 11 -10 2 0 4 5 4 10 0 6 -5 10 -11 10 -5 0
-7 -4 -4 -10z"/>
<path d="M23020 11030 c0 -5 5 -10 10 -10 6 0 10 5 10 10 0 6 -4 10 -10 10 -5
0 -10 -4 -10 -10z"/>
<path d="M23396 10465 c4 -9 15 -20 25 -26 16 -8 19 -6 19 16 0 20 -5 25 -25
25 -18 0 -23 -4 -19 -15z"/>
<path d="M23716 10225 c4 -9 15 -20 25 -26 16 -8 19 -6 19 16 0 20 -5 25 -25
25 -18 0 -23 -4 -19 -15z"/>
<path d="M24370 9965 c0 -8 7 -15 15 -15 8 0 15 7 15 15 0 8 -7 15 -15 15 -8
0 -15 -7 -15 -15z"/>
<path d="M24465 9910 c3 -5 8 -10 11 -10 2 0 4 5 4 10 0 6 -5 10 -11 10 -5 0
-7 -4 -4 -10z"/>
<path d="M25177 9779 c-9 -6 -21 -8 -26 -5 -16 10 -42 -46 -43 -91 0 -5 -3
-12 -8 -18 -7 -9 -43 -119 -45 -140 -1 -5 -8 -26 -17 -45 -19 -43 -7 -65 26
-49 17 10 19 9 9 -2 -18 -18 -16 -30 4 -22 12 5 14 3 8 -8 -6 -11 -5 -11 5 -2
7 6 18 10 24 9 6 -2 8 -1 4 1 -17 10 -7 23 10 14 17 -9 221 35 238 52 4 4 13
23 19 41 12 33 11 35 -82 147 -115 139 -105 130 -126 118z m-84 -242 c3 -8 -1
-14 -8 -14 -7 0 -11 6 -8 14 3 7 6 13 8 13 2 0 5 -6 8 -13z"/>
<path d="M24698 9763 c7 -3 16 -2 19 1 4 3 -2 6 -13 5 -11 0 -14 -3 -6 -6z"/>
<path d="M24956 9498 c-15 -18 -16 -20 -2 -15 9 4 16 2 16 -3 0 -6 -9 -10 -19
-10 -11 0 -23 -5 -27 -12 -5 -8 -2 -9 10 -5 10 4 22 7 26 7 5 0 14 9 21 21 16
30 -3 43 -25 17z"/>
<path d="M24800 9460 c0 -5 18 -10 39 -10 22 0 43 5 46 10 4 6 -12 10 -39 10
-25 0 -46 -4 -46 -10z"/>
<path d="M24820 9431 c0 -7 -4 -9 -10 -6 -6 4 -7 -1 -3 -11 6 -15 7 -15 15 1
6 9 7 19 4 22 -3 4 -6 1 -6 -6z"/>
<path d="M24870 9425 c-7 -8 -16 -13 -20 -10 -5 3 -11 2 -14 -3 -3 -5 3 -9 12
-9 18 0 48 25 40 33 -3 2 -11 -2 -18 -11z"/>
<path d="M25365 9413 c-11 -3 -39 -13 -61 -23 -23 -10 -50 -16 -62 -14 -11 3
-23 1 -26 -5 -4 -5 -13 -8 -21 -5 -14 6 -40 -30 -40 -55 0 -8 -6 -16 -13 -19
-6 -2 -12 4 -12 13 0 9 -4 13 -10 10 -5 -3 -10 -2 -10 4 0 6 -7 8 -15 5 -8 -4
-15 -14 -15 -23 0 -14 2 -14 10 -1 8 13 14 8 12 -11 -1 -7 47 -4 76 5 22 8 82
-12 82 -26 0 -11 -14 -10 -27 3 -8 8 -17 8 -32 0 -13 -8 -21 -8 -21 -2 0 6 -7
8 -15 5 -8 -4 -15 -10 -15 -15 0 -4 7 -5 17 -2 10 4 14 2 10 -5 -4 -6 5 -16
20 -24 16 -8 41 -23 58 -34 16 -10 26 -13 22 -6 -6 9 2 12 30 12 26 0 34 -3
24 -9 -8 -5 -21 -7 -30 -4 -13 4 -13 3 -2 -5 7 -5 22 -7 34 -4 11 3 18 1 14
-4 -3 -6 6 -10 21 -11 25 -2 25 -1 5 7 -15 6 -20 15 -16 29 6 23 14 26 29 12
5 -5 23 -11 39 -13 17 -1 33 -10 37 -18 5 -12 7 -12 7 2 1 10 7 15 14 12 10
-4 12 8 6 53 -4 32 -8 68 -8 80 -1 25 -54 59 -73 47 -6 -4 -8 -3 -5 3 10 16
-16 40 -38 36z m-174 -96 c-16 -16 -25 -1 -10 16 8 8 16 11 18 5 2 -5 -2 -15
-8 -21z m44 -57 c4 -6 14 -8 24 -5 12 3 17 -1 17 -15 0 -18 -2 -18 -23 -5 -12
8 -28 15 -35 15 -7 0 2 -9 21 -21 18 -11 31 -23 27 -26 -3 -3 -14 1 -24 10 -9
9 -29 20 -42 26 -18 7 -20 10 -7 10 9 1 17 6 17 11 0 13 17 13 25 0z"/>
<path d="M25588 9407 c-4 -9 -19 -22 -33 -29 -25 -11 -26 -14 -20 -77 9 -94
24 -148 36 -130 5 8 9 19 9 24 0 6 -5 3 -10 -5 -5 -8 -10 -10 -10 -5 0 6 4 16
9 23 11 18 23 -11 14 -35 -4 -14 -3 -15 6 -7 8 7 11 49 9 135 -2 68 -6 116
-10 106z m-5 -132 c-3 -9 -8 -14 -10 -11 -3 3 -2 9 2 15 9 16 15 13 8 -4z"/>
<path d="M24803 9373 c1 -17 4 -19 14 -11 7 6 13 16 13 22 0 6 -4 5 -9 -3 -7
-11 -9 -11 -14 0 -3 8 -4 4 -4 -8z"/>
<path d="M25140 9351 c-8 -6 -19 -7 -25 -4 -5 3 -4 0 3 -8 10 -11 15 -10 29 4
19 19 16 22 -7 8z"/>
<path d="M25057 9239 c7 -7 15 -10 18 -7 3 3 -2 9 -12 12 -14 6 -15 5 -6 -5z"/>
<path d="M24976 9212 c-2 -4 -1 -14 5 -22 6 -11 9 -12 9 -2 0 7 4 10 10 7 6
-3 7 1 4 9 -7 17 -20 21 -28 8z"/>
<path d="M25090 9209 c0 -5 -6 -7 -12 -3 -7 4 -9 3 -5 -1 13 -15 36 -14 30 1
-6 17 -13 18 -13 3z"/>
<path d="M3592 9184 c62 -129 77 -179 78 -256 0 -41 -4 -49 -27 -63 -27 -15
-27 -15 -3 -9 48 13 101 55 117 92 20 48 5 100 -47 156 -35 38 -129 101 -118
80z"/>
<path d="M25135 9169 c-11 -17 5 -30 26 -19 10 6 19 14 19 18 0 11 -39 12 -45
1z m25 -3 c0 -3 -4 -8 -10 -11 -5 -3 -10 -1 -10 4 0 6 5 11 10 11 6 0 10 -2
10 -4z"/>
<path d="M25425 9170 c-3 -5 -1 -10 4 -10 6 0 11 5 11 10 0 6 -2 10 -4 10 -3
0 -8 -4 -11 -10z"/>
<path d="M25186 9153 c-6 -14 -5 -15 5 -6 7 7 10 15 7 18 -3 3 -9 -2 -12 -12z"/>
<path d="M2810 8797 c0 -32 38 -94 85 -135 60 -52 142 -80 275 -92 144 -14
175 -23 189 -59 13 -30 17 -144 7 -226 -5 -45 -4 -46 4 -15 14 49 14 209 1
243 -15 39 -56 53 -191 65 -206 19 -313 80 -356 199 -7 21 -13 30 -14 20z"/>
<path d="M3798 8443 c7 -3 16 -2 19 1 4 3 -2 6 -13 5 -11 0 -14 -3 -6 -6z"/>
<path d="M3878 8423 c7 -3 16 -2 19 1 4 3 -2 6 -13 5 -11 0 -14 -3 -6 -6z"/>
<path d="M4168 8353 c7 -3 16 -2 19 1 4 3 -2 6 -13 5 -11 0 -14 -3 -6 -6z"/>
<path d="M4208 8343 c7 -3 16 -2 19 1 4 3 -2 6 -13 5 -11 0 -14 -3 -6 -6z"/>
<path d="M4248 8333 c7 -3 16 -2 19 1 4 3 -2 6 -13 5 -11 0 -14 -3 -6 -6z"/>
<path d="M3341 8183 c-16 -63 -70 -178 -116 -247 l-36 -55 -42 13 c-69 21
-156 68 -203 109 -24 21 -44 35 -44 30 0 -4 7 -46 15 -93 14 -77 18 -88 54
-122 78 -73 258 -101 342 -52 36 21 102 131 71 119 -29 -12 -136 -17 -160 -8
l-22 9 30 40 c56 77 144 283 127 300 -2 3 -10 -17 -16 -43z"/>
<path d="M3615 8070 c-4 -6 -4 -14 -1 -17 3 -4 6 -1 6 6 0 7 6 11 13 8 33 -12
61 -18 47 -9 -28 18 -58 23 -65 12z"/>
<path d="M3601 8024 c0 -11 3 -14 6 -6 3 7 2 16 -1 19 -3 4 -6 -2 -5 -13z"/>
<path d="M3850 7990 c8 -5 20 -10 25 -10 6 0 3 5 -5 10 -8 5 -19 10 -25 10 -5
0 -3 -5 5 -10z"/>
<path d="M3592 7960 c0 -14 2 -19 5 -12 2 6 2 18 0 25 -3 6 -5 1 -5 -13z"/>
<path d="M3930 7960 c8 -5 20 -10 25 -10 6 0 3 5 -5 10 -8 5 -19 10 -25 10 -5
0 -3 -5 5 -10z"/>
<path d="M5990 7860 c0 -5 4 -10 9 -10 5 0 18 -3 28 -6 16 -6 16 -5 -2 9 -23
19 -35 21 -35 7z"/>
<path d="M6184 7748 c10 -6 22 -6 26 -2 5 5 -3 10 -18 11 -22 1 -24 0 -8 -9z"/>
<path d="M6168 7728 c5 -5 16 -8 23 -6 8 3 3 7 -10 11 -17 4 -21 3 -13 -5z"/>
<path d="M2580 7721 c-71 -22 -153 -84 -170 -128 -7 -16 1 -45 30 -113 22 -50
40 -98 40 -106 0 -8 17 -22 38 -31 73 -30 262 11 290 64 10 19 -8 242 -23 276
-4 10 -20 24 -36 32 -30 16 -126 19 -169 6z"/>
<path d="M5991 7624 c0 -11 3 -14 6 -6 3 7 2 16 -1 19 -3 4 -6 -2 -5 -13z"/>
<path d="M6053 7583 c-15 -5 -17 -23 -4 -23 5 0 11 7 15 15 3 8 4 15 3 14 -1
0 -8 -3 -14 -6z"/>
<path d="M7572 6881 c-102 -35 -137 -95 -116 -200 l6 -31 28 38 c58 78 162
150 251 173 27 7 49 16 49 20 0 9 -64 19 -120 19 -25 -1 -69 -9 -98 -19z"/>
<path d="M8150 6697 c0 -3 7 -36 16 -74 19 -83 14 -225 -11 -296 -9 -27 -14
-51 -11 -54 8 -9 80 19 113 44 69 51 66 159 -6 270 -35 53 -101 125 -101 110z"/>
<path d="M6264 6589 c-4 -7 -3 -9 4 -5 11 6 55 -30 380 -316 111 -98 205 -178
209 -178 5 0 1 6 -8 13 -8 7 -136 118 -283 247 -148 129 -274 238 -281 243 -8
4 -17 2 -21 -4z"/>
<path d="M6231 6519 c-6 -18 -11 -37 -10 -43 0 -6 7 7 15 28 8 22 12 41 10 43
-2 2 -9 -10 -15 -28z"/>
<path d="M7023 6463 c-7 -2 -13 -9 -13 -15 0 -6 6 -6 15 2 31 26 70 -5 190
-154 91 -114 131 -152 223 -211 144 -92 280 -142 456 -165 111 -15 128 -29
115 -92 -31 -138 -272 -392 -625 -655 -16 -12 -26 -22 -22 -22 8 -1 158 112
248 187 98 81 266 249 317 317 77 102 110 185 93 230 -11 28 -17 30 -145 49
-122 18 -217 47 -310 93 -161 81 -238 146 -383 326 -77 95 -121 126 -159 110z"/>
<path d="M6212 6440 c0 -14 2 -19 5 -12 2 6 2 18 0 25 -3 6 -5 1 -5 -13z"/>
<path d="M6831 6034 c0 -11 3 -14 6 -6 3 7 2 16 -1 19 -3 4 -6 -2 -5 -13z"/>
<path d="M6822 5990 c0 -14 2 -19 5 -12 2 6 2 18 0 25 -3 6 -5 1 -5 -13z"/>
<path d="M6811 5904 c0 -11 3 -14 6 -6 3 7 2 16 -1 19 -3 4 -6 -2 -5 -13z"/>
<path d="M6850 5457 c0 -29 -5 -80 -11 -112 -9 -49 -8 -65 6 -102 49 -127 275
-250 421 -228 40 6 56 16 105 65 l59 58 -68 7 c-88 9 -157 36 -246 96 -80 53
-200 174 -231 232 -11 20 -23 37 -27 37 -5 0 -8 -24 -8 -53z"/>
</g>
</svg>
