<?xml version="1.0" standalone="no"?>
<!DOCTYPE svg PUBLIC "-//W3C//DTD SVG 20010904//EN"
 "http://www.w3.org/TR/2001/REC-SVG-20010904/DTD/svg10.dtd">
<svg version="1.0" xmlns="http://www.w3.org/2000/svg"
 width="1280.000000pt" height="640.000000pt" viewBox="0 0 1280.000000 640.000000"
 preserveAspectRatio="xMidYMid meet">

<g transform="translate(0.000000,640.000000) scale(0.100000,-0.100000)"
fill="#000000" stroke="none">
<path d="M0 3200 l0 -3200 6400 0 6400 0 0 3200 0 3200 -6400 0 -6400 0 0
-3200z m680 2912 c0 -67 22 -107 70 -128 61 -27 52 -44 -24 -44 -70 0 -88 -12
-116 -80 -7 -16 -19 -30 -27 -30 -12 0 -14 10 -8 58 7 67 0 81 -64 115 -65 34
-67 52 -4 44 59 -7 100 13 123 59 35 70 50 71 50 6z m9558 -179 c-10 -2 -26
-2 -35 0 -10 3 -2 5 17 5 19 0 27 -2 18 -5z m340 0 c-10 -2 -26 -2 -35 0 -10
3 -2 5 17 5 19 0 27 -2 18 -5z m-435 -10 c-7 -2 -19 -2 -25 0 -7 3 -2 5 12 5
14 0 19 -2 13 -5z m524 1 c-3 -3 -12 -4 -19 -1 -8 3 -5 6 6 6 11 1 17 -2 13
-5z m-590 -10 c-3 -3 -12 -4 -19 -1 -8 3 -5 6 6 6 11 1 17 -2 13 -5z m710 -10
c-3 -3 -12 -4 -19 -1 -8 3 -5 6 6 6 11 1 17 -2 13 -5z m-76 -303 c485 -105
900 -424 1114 -856 73 -147 114 -262 146 -415 33 -153 34 -457 2 -615 -130
-641 -612 -1136 -1242 -1276 -212 -46 -480 -46 -692 1 -327 72 -644 258 -862
507 -381 436 -504 1026 -326 1573 112 343 355 659 654 852 162 105 372 191
554 227 140 29 148 29 361 26 151 -3 217 -8 291 -24z m1064 -54 c14 -67 54
-113 112 -129 73 -21 68 -42 -12 -59 l-67 -14 31 -42 c37 -51 34 -54 -13 -12
-20 17 -40 28 -45 25 -5 -3 -15 -30 -21 -58 -20 -83 -44 -88 -54 -11 -14 97
-22 105 -141 141 -47 14 -37 35 22 47 28 5 55 13 59 18 4 4 -8 24 -27 44 l-34
36 47 -32 47 -31 15 22 c8 13 20 42 27 66 17 58 40 53 54 -11z m-6951 -425 c4
-10 20 -31 36 -47 26 -25 38 -29 80 -27 28 1 50 -2 50 -7 0 -5 -19 -23 -42
-38 -42 -28 -43 -30 -43 -85 0 -31 -3 -59 -7 -63 -4 -4 -16 11 -27 34 -27 53
-51 64 -112 56 -56 -8 -66 6 -20 30 45 23 61 53 61 112 0 52 13 71 24 35z
m7473 -794 c-3 -8 -6 -5 -6 6 -1 11 2 17 5 13 3 -3 4 -12 1 -19z m-3810 -10
c-3 -8 -6 -5 -6 6 -1 11 2 17 5 13 3 -3 4 -12 1 -19z m3820 -60 c-3 -7 -5 -2
-5 12 0 14 2 19 5 13 2 -7 2 -19 0 -25z m-3830 -20 c-3 -7 -5 -2 -5 12 0 14 2
19 5 13 2 -7 2 -19 0 -25z m-7803 -38 l31 0 -27 -25 c-18 -16 -25 -31 -21 -45
3 -11 0 -20 -6 -20 -13 0 -16 -416 -3 -422 4 -2 73 -2 155 0 l147 4 0 233 c0
196 2 235 15 245 16 13 169 9 183 -5 9 -8 14 -868 6 -890 -5 -13 -22 -15 -103
-13 l-96 3 -3 96 -3 96 -46 7 c-66 9 -363 7 -363 -2 0 -4 23 -30 50 -57 48
-47 51 -53 48 -95 l-3 -45 -105 0 -105 0 -3 444 c-1 280 1 448 8 455 5 5 39 8
75 7 89 -3 105 3 106 42 l0 32 16 -22 c10 -16 26 -23 47 -23z m2248 -32 l23
-18 -31 0 c-39 0 -42 -8 -45 -108 l-2 -80 -45 -7 c-25 -4 -166 -3 -313 1 -164
4 -269 3 -269 -2 0 -6 23 -32 50 -59 l50 -49 0 -183 0 -183 263 -2 262 -3 0
-105 0 -105 -325 -3 -324 -2 -48 47 -48 47 0 366 0 366 43 42 43 42 150 0
c213 0 454 12 448 21 -3 5 7 8 22 7 19 -2 32 5 43 21 l15 24 8 -29 c4 -16 18
-36 30 -46z m2909 3 l30 -19 -26 -6 c-15 -4 -30 -17 -35 -32 -6 -14 -10 -120
-10 -235 l0 -209 160 0 160 0 2 243 3 242 97 3 97 3 6 -33 c3 -18 5 -222 3
-453 l-3 -420 -100 0 -100 0 -3 98 -3 97 -217 0 -216 0 58 -58 c53 -54 57 -62
54 -98 l-3 -39 -105 0 -105 0 0 450 0 450 86 6 c96 6 106 10 121 47 11 27 12
27 16 4 2 -13 17 -31 33 -41z m6486 -8 c-3 -10 -5 -2 -5 17 0 19 2 27 5 18 2
-10 2 -26 0 -35z m-10332 -23 l40 -41 2 -406 c0 -223 -1 -412 -4 -420 -4 -11
-27 -13 -102 -11 l-96 3 -3 96 -3 96 -46 7 c-66 9 -383 7 -383 -2 0 -4 25 -32
55 -62 44 -43 55 -61 55 -86 0 -48 -16 -55 -121 -52 l-94 3 -3 410 -2 409 42
43 42 43 205 3 c113 1 244 3 291 5 l86 2 39 -40z m1223 -132 c2 -142 4 -158
20 -157 9 0 82 24 162 52 l145 52 5 110 5 110 45 3 c25 2 68 1 97 -3 l52 -6
-2 -182 -2 -182 -73 -29 c-40 -17 -71 -33 -70 -38 2 -4 35 -29 73 -55 l70 -48
0 -185 0 -185 -95 0 -95 0 -3 122 -3 123 -97 73 -97 74 -67 -25 -68 -25 -2
-171 -3 -171 -105 0 -105 0 -3 444 c-1 260 2 448 7 455 6 7 42 9 108 6 l98 -5
3 -157z m5259 120 c-2 -13 -4 -5 -4 17 -1 22 1 32 4 23 2 -10 2 -28 0 -40z
m-3874 -6 l37 -38 -2 -415 -3 -414 -97 -3 c-74 -2 -98 0 -99 10 -1 7 -1 52 0
101 l1 87 -215 0 c-118 0 -215 -4 -215 -9 0 -4 23 -29 51 -55 47 -43 50 -49
47 -89 l-3 -42 -105 0 -105 0 -3 405 -2 404 47 48 47 48 291 0 291 0 37 -38z
m877 -72 l0 -110 -182 0 -182 0 57 -58 57 -58 -2 -284 -3 -285 -105 0 -105 0
-3 343 -2 342 -130 0 c-79 0 -131 4 -135 10 -5 9 -8 131 -5 200 0 6 130 10
370 10 l370 0 0 -110z m1652 73 l38 -37 0 -380 0 -380 -37 -38 -37 -38 -290 0
-290 0 -48 47 -48 47 0 360 0 360 47 48 47 48 290 0 290 0 38 -37z m352 21 c3
-9 6 -34 6 -57 l0 -41 58 57 58 57 173 -2 174 -3 29 -37 30 -36 3 -329 c2
-180 1 -367 -2 -415 l-6 -88 -88 0 c-49 0 -89 -3 -89 -6 0 -3 5 -14 10 -25 13
-24 3 -25 -22 -2 -16 14 -22 15 -40 4 -26 -16 -33 -9 -17 17 10 16 10 26 1 46
-11 25 0 38 13 16 3 -5 13 -10 21 -10 12 0 14 49 14 325 l0 325 -217 0 -217 0
57 -58 57 -58 -2 -284 -3 -285 -104 -3 c-65 -2 -107 1 -111 8 -3 5 -5 191 -4
412 l2 402 45 43 c43 41 49 43 105 43 45 0 61 -4 66 -16z m993 -286 c-2 -13
-4 -5 -4 17 -1 22 1 32 4 23 2 -10 2 -28 0 -40z m3850 -35 c-3 -10 -5 -2 -5
17 0 19 2 27 5 18 2 -10 2 -26 0 -35z m-3840 -65 c-3 -7 -5 -2 -5 12 0 14 2
19 5 13 2 -7 2 -19 0 -25z m3830 -20 c-3 -7 -5 -2 -5 12 0 14 2 19 5 13 2 -7
2 -19 0 -25z m-3820 -50 c-3 -8 -6 -5 -6 6 -1 11 2 17 5 13 3 -3 4 -12 1 -19z
m3810 -10 c-3 -8 -6 -5 -6 6 -1 11 2 17 5 13 3 -3 4 -12 1 -19z m-3800 -40
c-3 -8 -6 -5 -6 6 -1 11 2 17 5 13 3 -3 4 -12 1 -19z m-7401 -1449 c112 -88
204 -163 204 -165 0 -3 -13 5 -28 16 -27 20 -39 21 -235 18 -114 -2 -207 -1
-207 2 0 3 9 57 20 120 11 63 20 118 20 123 0 4 -17 0 -37 -8 -20 -9 -34 -13
-31 -10 9 10 83 64 86 65 2 0 96 -72 208 -161z m8941 -75 c-3 -3 -12 -4 -19
-1 -8 3 -5 6 6 6 11 1 17 -2 13 -5z m730 0 c-3 -3 -12 -4 -19 -1 -8 3 -5 6 6
6 11 1 17 -2 13 -5z m-670 -10 c-3 -3 -12 -4 -19 -1 -8 3 -5 6 6 6 11 1 17 -2
13 -5z m620 0 c-3 -3 -12 -4 -19 -1 -8 3 -5 6 6 6 11 1 17 -2 13 -5z m-554
-11 c-7 -2 -19 -2 -25 0 -7 3 -2 5 12 5 14 0 19 -2 13 -5z m480 0 c-7 -2 -19
-2 -25 0 -7 3 -2 5 12 5 14 0 19 -2 13 -5z m-10545 -61 c34 -24 62 -44 62 -45
0 -1 -34 -1 -75 1 l-75 4 0 49 c0 57 -6 57 88 -9z m10190 51 c-10 -2 -28 -2
-40 0 -13 2 -5 4 17 4 22 1 32 -1 23 -4z m260 0 c-10 -2 -28 -2 -40 0 -13 2
-5 4 17 4 22 1 32 -1 23 -4z m-10230 -245 c19 -35 27 -56 20 -47 -10 13 -25
15 -67 11 l-54 -5 28 52 c16 28 31 51 34 51 4 0 21 -28 39 -62z m3404 -248
c19 -33 71 -60 115 -60 15 0 45 -7 68 -15 22 -7 123 -31 225 -52 137 -28 175
-39 145 -41 -39 -3 -269 -63 -312 -82 -19 -8 -28 -3 -63 37 -38 44 -42 45 -65
33 -20 -11 -25 -21 -25 -51 0 -51 -22 -56 -54 -14 -14 18 -26 40 -26 49 0 22
-17 29 -76 28 -60 0 -68 10 -25 33 45 23 61 53 61 112 0 29 3 53 8 53 4 0 15
-14 24 -30z m-1639 -61 c53 -7 97 -15 97 -19 0 -3 -19 -11 -42 -18 -24 -7 -69
-23 -101 -36 l-58 -24 -30 60 -31 61 34 -6 c18 -3 77 -11 131 -18z m150 -26
c-7 -2 -21 -2 -30 0 -10 3 -4 5 12 5 17 0 24 -2 18 -5z m666 -105 c-25 -49
-152 -258 -156 -258 -2 0 -2 4 1 9 12 19 -399 40 -433 21 -13 -6 -25 -10 -27
-7 -4 4 602 255 619 256 4 1 2 -9 -4 -21z m1458 16 c-3 -3 -12 -4 -19 -1 -8 3
-5 6 6 6 11 1 17 -2 13 -5z m415 -125 c101 -45 193 -86 205 -92 17 -9 -26 -12
-199 -12 l-220 0 6 44 c3 24 6 66 6 92 0 27 4 49 10 49 5 0 92 -36 192 -81z
m-3377 -104 c374 -41 687 -75 695 -75 9 0 10 -3 5 -9 -9 -9 -1003 -544 -1124
-606 -29 -14 -50 -22 -47 -16 5 7 -302 171 -321 171 -2 0 -3 -10 -3 -22 0 -12
-2 -19 -5 -16 -3 3 3 107 15 231 25 283 25 290 3 277 -10 -5 -110 -35 -223
-66 -113 -31 -243 -67 -289 -80 -46 -13 -85 -24 -87 -24 -2 0 -4 44 -4 99 l0
99 143 26 c78 15 221 42 317 60 96 19 191 32 210 30 19 -3 341 -38 715 -79z
m6175 -225 c0 -102 -1 -110 -20 -110 -10 0 -23 7 -28 16 -8 14 -10 14 -21 0
-8 -9 -26 -16 -42 -16 -41 0 -63 38 -56 92 8 63 58 89 99 51 17 -15 18 -14 18
30 0 43 2 47 25 47 l25 0 0 -110z m560 85 c0 -20 -5 -25 -25 -25 -20 0 -25 5
-25 25 0 20 5 25 25 25 20 0 25 -5 25 -25z m210 -20 l0 -45 24 16 c57 36 96
-2 96 -93 0 -52 0 -53 -30 -53 -30 0 -30 1 -30 55 0 40 -4 57 -15 61 -27 11
-45 -16 -45 -67 0 -46 -2 -49 -25 -49 l-25 0 0 110 0 110 25 0 c23 0 25 -4 25
-45z m680 -1 c0 -41 1 -44 16 -30 22 22 57 20 80 -5 23 -25 26 -98 5 -122 -17
-21 -65 -22 -85 -1 -15 14 -17 14 -22 0 -3 -9 -17 -16 -30 -16 -24 0 -24 1
-24 110 l0 110 30 0 c29 0 30 -2 30 -46z m544 4 c18 -23 18 -23 -7 -26 -14 -2
-35 2 -46 7 -27 15 -37 14 -55 -5 -30 -29 -12 -114 24 -114 17 0 40 12 40 21
0 5 -11 9 -25 9 -20 0 -25 5 -25 25 0 24 3 25 60 25 l60 0 0 -60 c0 -57 -1
-60 -25 -60 -14 0 -25 5 -25 10 0 7 -6 7 -19 0 -11 -5 -35 -10 -54 -10 -27 0
-41 7 -62 32 -23 28 -27 39 -23 80 3 27 13 57 23 68 39 43 122 42 159 -2z
m116 17 c0 -21 -5 -25 -30 -25 -25 0 -30 4 -30 25 0 21 5 25 30 25 25 0 30 -4
30 -25z m640 -15 c0 -37 2 -40 19 -30 59 31 99 -10 93 -97 -4 -48 -66 -70
-104 -36 -17 15 -18 15 -18 0 0 -11 -8 -17 -25 -17 l-25 0 0 110 0 110 30 0
c28 0 30 -2 30 -40z m730 -70 c0 -102 -1 -110 -20 -110 -10 0 -23 7 -28 16 -8
14 -10 14 -21 0 -8 -9 -26 -16 -42 -16 -41 0 -63 38 -56 92 8 63 58 89 99 51
17 -15 18 -14 18 30 0 43 2 47 25 47 l25 0 0 -110z m450 85 c0 -20 -5 -25 -25
-25 -20 0 -25 5 -25 25 0 20 5 25 25 25 20 0 25 -5 25 -25z m570 -85 c0 -109
0 -110 -24 -110 -13 0 -27 7 -30 16 -5 14 -8 14 -22 -1 -10 -10 -29 -15 -48
-13 -39 4 -61 44 -52 94 12 60 59 83 98 47 17 -15 18 -14 18 30 0 46 1 47 30
47 l30 0 0 -110z m-5016 55 c10 -25 21 -45 26 -45 5 0 16 20 26 45 16 43 19
45 55 45 l39 0 0 -105 0 -105 -30 0 -30 0 -1 63 0 62 -27 -52 c-14 -29 -29
-53 -32 -53 -3 0 -18 24 -32 53 l-27 52 0 -62 -1 -63 -30 0 -30 0 0 105 0 105
39 0 c36 0 39 -2 55 -45z m1176 20 c0 -16 6 -25 15 -25 8 0 15 -9 15 -20 0
-11 -7 -20 -15 -20 -11 0 -15 -11 -15 -40 0 -29 4 -40 15 -40 8 0 15 -9 15
-20 0 -15 -7 -20 -28 -20 -39 0 -52 17 -52 67 0 30 -5 45 -15 49 -8 4 -15 15
-15 25 0 10 7 19 15 19 8 0 15 9 15 19 0 17 12 25 43 30 4 0 7 -10 7 -24z
m423 13 c12 -6 27 -18 33 -26 9 -12 12 -11 24 3 22 27 57 36 85 23 48 -22 41
-69 -18 -135 -19 -21 -46 -55 -59 -75 l-25 -37 -12 26 c-7 14 -31 49 -55 77
-59 70 -69 91 -56 117 6 11 21 24 33 29 29 11 25 12 50 -2z m1117 -13 c0 -18
5 -25 20 -25 13 0 20 -7 20 -19 0 -10 -9 -21 -20 -24 -15 -4 -20 -14 -20 -37
0 -23 5 -33 20 -37 11 -3 20 -14 20 -24 0 -15 -7 -19 -33 -19 -45 0 -57 15
-57 72 0 36 -4 48 -15 48 -8 0 -15 9 -15 20 0 11 7 20 15 20 8 0 15 9 15 19 0
17 12 25 43 30 4 0 7 -10 7 -24z m120 -15 l0 -40 45 0 45 0 0 40 c0 38 2 40
30 40 l30 0 0 -105 0 -105 -30 0 c-29 0 -30 2 -30 46 l0 45 -42 -3 c-43 -3
-43 -3 -46 -45 -3 -38 -6 -43 -28 -43 -24 0 -24 0 -24 105 l0 105 25 0 c23 0
25 -4 25 -40z m1420 20 c0 -17 -7 -20 -50 -20 -47 0 -50 -2 -50 -25 0 -22 4
-25 40 -25 36 0 40 -2 40 -25 0 -22 -4 -25 -40 -25 -39 0 -40 -1 -40 -35 0
-32 -2 -35 -30 -35 l-30 0 0 105 0 105 80 0 c73 0 80 -2 80 -20z m-3962 -47
c14 -13 22 -36 26 -80 6 -61 5 -63 -18 -63 -14 0 -26 6 -29 13 -4 10 -7 10
-18 0 -20 -20 -67 -16 -79 6 -5 11 -10 24 -10 30 0 20 33 41 66 41 23 0 34 5
34 15 0 12 -9 13 -45 8 -50 -6 -59 6 -23 31 30 21 71 20 96 -1z m382 -3 c11
-11 20 -31 20 -45 0 -23 -3 -25 -50 -25 -39 0 -50 -3 -50 -16 0 -13 8 -15 50
-9 55 8 65 -3 28 -29 -25 -18 -70 -21 -98 -6 -42 23 -44 105 -2 136 26 20 79
17 102 -6z m155 -32 c6 -41 9 -49 15 -33 5 11 9 35 9 53 1 29 4 32 30 32 31 0
41 -14 41 -61 0 -45 17 -34 24 16 6 40 10 45 33 45 21 0 24 -3 19 -22 -3 -13
-11 -49 -17 -80 -11 -57 -12 -58 -45 -58 -35 0 -34 -1 -47 65 -3 13 -7 4 -12
-22 -7 -40 -10 -43 -40 -43 -33 0 -34 1 -49 69 -20 90 -20 91 8 91 21 0 24 -6
31 -52z m245 -28 c0 -79 0 -80 -25 -80 -25 0 -25 1 -25 80 0 79 0 80 25 80 25
0 25 -1 25 -80z m1081 28 l13 -53 14 53 c14 47 18 52 43 52 l28 0 -31 -87
c-38 -106 -51 -123 -95 -123 -26 0 -33 4 -33 20 0 13 7 20 19 20 31 0 33 15
10 72 -43 107 -42 98 -10 98 27 0 30 -4 42 -52z m469 -28 l0 -80 -30 0 -30 0
0 80 0 80 30 0 30 0 0 -80z m442 23 c2 -47 6 -58 22 -61 26 -5 36 15 36 71 0
43 2 47 25 47 25 0 25 -1 25 -80 0 -79 0 -80 -25 -80 -17 0 -25 6 -25 17 0 15
-1 15 -18 0 -25 -23 -69 -22 -82 2 -5 11 -10 47 -10 80 0 58 1 61 25 61 22 0
24 -4 27 -57z m516 40 c14 -13 22 -36 26 -80 5 -61 5 -63 -17 -63 -13 0 -28 5
-34 11 -8 8 -13 8 -17 0 -9 -15 -59 -14 -74 1 -30 30 -7 69 43 77 49 8 42 27
-7 23 -43 -4 -49 9 -16 32 30 21 71 20 96 -1z m102 1 c0 -14 2 -14 22 0 57 41
98 5 98 -86 0 -58 0 -58 -30 -58 -28 0 -29 1 -32 58 -3 49 -6 57 -23 57 -17 0
-20 -8 -23 -57 -3 -57 -4 -58 -32 -58 l-30 0 0 80 c0 79 0 80 25 80 16 0 25
-6 25 -16z m636 1 c5 -13 8 -13 21 0 21 21 33 18 33 -8 0 -14 -9 -26 -22 -32
-19 -8 -24 -19 -26 -57 -3 -43 -5 -48 -28 -48 -23 0 -24 2 -24 80 0 74 2 80
20 80 11 0 23 -7 26 -15z m124 -65 c0 -79 0 -80 -25 -80 -25 0 -25 1 -25 80 0
79 0 80 25 80 25 0 25 -1 25 -80z m158 64 c14 -10 22 -25 22 -45 0 -28 -1 -29
-51 -29 -36 0 -49 -4 -46 -12 3 -9 20 -12 51 -10 50 3 55 -2 29 -30 -23 -25
-87 -24 -113 2 -31 31 -27 93 6 119 32 25 71 27 102 5z m100 0 c8 -14 10 -14
21 0 17 20 55 20 75 0 11 -11 16 -35 16 -80 0 -62 -1 -64 -25 -64 -24 0 -25 3
-25 55 0 40 -4 57 -15 61 -27 11 -45 -16 -45 -67 0 -46 -2 -49 -25 -49 -25 0
-25 1 -25 80 0 73 2 80 20 80 10 0 23 -7 28 -16z m450 0 c35 -24 27 -37 -18
-30 -25 4 -40 2 -40 -4 0 -5 11 -10 25 -10 54 0 77 -55 37 -87 -34 -28 -122
-7 -122 28 0 13 37 11 60 -3 10 -7 22 -9 26 -6 10 10 -5 28 -24 28 -24 0 -62
28 -62 46 0 23 38 54 68 54 15 0 38 -7 50 -16z m-5873 -136 c50 -51 81 -84 69
-75 -20 16 -27 17 -119 2 -53 -9 -100 -14 -102 -11 -3 2 3 30 12 62 19 65 11
83 -26 64 -13 -7 -21 -9 -17 -5 14 15 73 54 83 55 6 0 51 -41 100 -92z m5776
-262 c29 -50 60 -66 124 -66 30 0 55 -4 55 -9 0 -5 -20 -21 -46 -36 -54 -31
-63 -52 -57 -122 3 -29 3 -53 -1 -53 -3 0 -20 22 -37 50 -35 57 -51 64 -120
55 -61 -8 -68 12 -13 38 45 22 66 69 58 131 -8 56 8 61 37 12z m-11201 -131
c0 -2 -13 -11 -30 -20 -38 -19 -40 -11 -2 9 31 17 32 18 32 11z"/>
<path d="M10174 5585 c-154 -24 -307 -70 -434 -129 l-54 -25 -1 -241 c-1 -160
2 -243 9 -248 6 -5 42 -21 79 -37 38 -15 103 -49 146 -75 l78 -47 64 14 c35 7
125 20 199 28 116 12 153 12 265 0 72 -7 161 -21 198 -29 l69 -15 54 34 c121
78 235 123 319 127 48 3 51 2 67 -32 10 -19 21 -53 25 -75 10 -48 10 -210 1
-245 -3 -14 -9 -37 -13 -52 -4 -17 -3 -28 3 -28 11 0 83 -108 105 -160 37 -85
42 -116 42 -270 0 -192 -17 -272 -83 -400 -80 -154 -206 -253 -392 -308 -100
-30 -157 -42 -193 -42 -47 0 -51 -8 -18 -46 16 -18 39 -59 52 -91 22 -56 22
-68 21 -333 -2 -296 0 -311 50 -339 24 -14 32 -14 80 3 90 32 269 122 348 174
135 91 330 268 322 294 -1 4 2 8 8 8 5 0 10 7 10 16 0 8 -4 13 -9 10 -4 -3 -5
13 -1 37 5 23 4 49 -1 59 -6 11 -5 19 1 23 8 5 7 12 -2 23 -8 10 -9 13 -1 9
13 -8 12 30 -2 52 -5 9 -4 12 2 8 7 -4 9 12 7 46 -5 72 -5 78 -1 115 3 17 0
32 -4 32 -5 0 -9 5 -9 11 0 5 3 8 8 5 4 -2 8 13 8 35 1 21 -2 36 -7 33 -5 -3
-5 5 0 18 9 27 7 220 -3 237 -4 6 -4 11 1 11 4 0 8 18 8 40 0 22 -4 40 -9 40
-5 0 -2 7 5 17 11 13 11 17 1 20 -6 3 -9 10 -5 16 9 14 11 137 2 132 -3 -2 -6
9 -6 25 0 16 4 27 9 24 4 -3 8 -1 8 5 0 5 -4 13 -10 16 -5 3 -10 22 -10 41 0
19 4 33 8 30 10 -6 8 106 -3 153 -5 24 -3 36 6 42 11 7 12 12 1 29 -7 11 -8
20 -4 20 10 0 7 84 -4 101 -4 7 -3 9 3 6 11 -7 10 34 -2 52 -3 6 -3 11 2 11
10 0 11 175 1 185 -4 4 -3 18 2 31 7 17 6 24 -3 24 -8 0 -7 4 3 10 12 7 12 12
2 22 -14 14 -17 32 -3 24 8 -5 6 47 -4 72 -3 8 0 10 6 6 10 -6 7 25 -7 78 -8
29 -194 198 -297 269 -206 142 -427 228 -686 264 -123 18 -313 17 -427 0z"/>
<path d="M9685 3270 l0 -170 44 -15 c72 -24 164 -18 254 17 15 6 27 18 27 27
0 35 22 92 54 140 36 53 33 61 -22 61 -45 0 -219 48 -289 80 -36 16 -66 30
-67 30 0 0 -1 -76 -1 -170z"/>
<path d="M9687 3047 c-7 -20 1 -27 30 -27 18 0 24 5 21 18 -4 21 -43 28 -51 9z"/>
<path d="M9937 3053 c-14 -13 -7 -43 11 -43 27 0 46 16 39 34 -6 16 -38 22
-50 9z"/>
<path d="M9804 3028 c-6 -10 20 -38 37 -38 13 0 31 29 24 40 -8 14 -52 13 -61
-2z"/>
<path d="M9686 2767 c1 -67 2 -131 3 -143 1 -16 19 -28 79 -53 42 -18 85 -37
94 -42 32 -16 96 -11 118 11 18 18 20 33 20 185 l0 165 -32 -8 c-43 -9 -237
-9 -263 0 -20 8 -20 4 -19 -115z"/>
<path d="M498 4143 c-47 -4 -48 -5 -47 -36 2 -38 16 -100 18 -74 1 14 11 17
71 17 l70 0 0 45 c0 38 -3 45 -19 45 -11 0 -25 1 -33 3 -7 2 -34 2 -60 0z"/>
<path d="M984 4124 c3 -9 7 -37 7 -62 1 -26 3 -39 6 -29 4 14 16 17 74 17 l69
0 0 45 0 45 -81 0 c-70 0 -80 -2 -75 -16z"/>
<path d="M455 3712 c-8 -8 -5 -102 4 -147 5 -22 9 -32 10 -22 1 16 22 17 334
17 l332 -1 3 80 3 79 -78 -1 c-71 -2 -78 -4 -78 -22 0 -43 -9 -45 -184 -45
-175 0 -191 4 -191 45 0 18 -6 20 -75 21 -41 1 -77 -1 -80 -4z"/>
<path d="M2198 4113 c-30 -31 -38 -46 -37 -73 1 -25 3 -28 6 -12 l4 23 339 -3
339 -3 6 23 c3 13 1 30 -5 38 -7 7 -9 18 -5 24 4 7 -77 10 -258 10 -145 0
-284 3 -308 6 -41 5 -46 3 -81 -33z"/>
<path d="M2154 3709 c-3 -5 -2 -48 2 -96 5 -49 10 -80 12 -70 3 14 15 17 73
17 l69 0 0 79 0 79 -75 0 c-41 0 -78 -4 -81 -9z"/>
<path d="M5600 4081 c0 -28 5 -53 10 -56 6 -3 10 -1 10 5 0 8 23 11 68 9 l67
-3 3 47 3 47 -80 0 -81 0 0 -49z"/>
<path d="M6151 4058 c1 -40 4 -60 6 -44 l5 29 69 -5 69 -5 0 26 c0 14 3 36 6
49 6 21 4 22 -75 22 l-81 0 1 -72z"/>
<path d="M6150 3685 c0 -44 -7 -46 -201 -43 l-184 3 -3 28 c-3 27 -4 27 -83
27 l-79 0 0 -84 c0 -76 11 -117 22 -84 3 9 85 12 341 13 l337 0 0 77 0 76 -75
4 c-69 3 -75 2 -75 -17z"/>
<path d="M1350 4105 c-22 -23 -40 -49 -40 -59 0 -14 3 -16 13 -8 9 7 127 12
350 13 185 2 337 5 337 9 0 3 -17 22 -37 42 l-38 36 -273 4 -273 3 -39 -40z"/>
<path d="M1390 3952 c0 -4 25 -32 55 -62 l54 -54 3 -75 c3 -72 4 -76 26 -75
12 0 83 1 157 2 l135 2 0 128 0 129 -97 6 c-136 9 -333 9 -333 -1z"/>
<path d="M1310 3622 c1 -84 3 -95 14 -79 13 16 39 17 347 17 l334 -1 3 79 3
80 -76 -1 c-70 0 -75 -2 -75 -22 0 -41 -15 -45 -194 -45 -94 0 -176 4 -182 8
-7 4 -14 18 -15 31 -4 23 -8 25 -81 27 l-78 2 0 -96z"/>
<path d="M3075 4141 l-50 -6 6 -60 c3 -33 6 -52 7 -42 2 18 22 21 105 17 l37
-2 0 51 c0 57 6 55 -105 42z"/>
<path d="M3571 4073 c1 -38 4 -58 6 -45 4 22 8 23 73 20 75 -3 80 0 80 65 l0
27 -80 0 -80 0 1 -67z"/>
<path d="M3026 3710 c-1 -3 1 -45 4 -95 4 -49 7 -82 8 -72 2 14 13 17 72 17
l70 0 0 29 c0 35 7 41 97 76 l72 28 98 -70 c116 -82 129 -91 118 -74 -5 10 12
12 74 9 45 -2 81 0 81 4 0 3 3 13 6 22 4 10 -18 31 -78 71 l-84 55 -268 3
c-147 1 -269 0 -270 -3z"/>
<path d="M3951 4095 c-24 -27 -31 -45 -30 -73 1 -33 2 -34 8 -10 l6 27 338 -2
c229 -1 337 1 337 8 0 6 -17 28 -38 48 l-38 37 -276 0 -276 0 -31 -35z"/>
<path d="M4000 3932 c0 -4 23 -30 50 -57 l50 -49 0 -78 0 -78 163 2 162 3 0
130 0 130 -212 3 c-117 1 -213 -1 -213 -6z"/>
<path d="M3918 3695 c-2 -5 0 -53 3 -105 3 -52 6 -84 7 -70 l2 25 339 0 339 0
6 35 c3 19 6 54 6 78 l0 42 -79 0 c-79 0 -80 0 -83 -27 l-3 -28 -188 -3 -187
-2 -6 29 c-6 29 -7 30 -80 33 -44 2 -75 -1 -76 -7z"/>
<path d="M4761 4053 c1 -43 4 -66 6 -52 4 24 10 27 56 33 29 4 183 6 342 5
l290 -2 3 46 3 47 -350 0 -351 0 1 -77z"/>
<path d="M5030 3608 l0 -98 20 20 c23 23 98 28 118 8 9 -9 12 -4 12 23 0 18 3
57 6 86 l7 51 -82 4 -81 3 0 -97z"/>
<path d="M6481 4091 c-20 -24 -31 -50 -30 -67 1 -26 2 -27 7 -7 l7 23 338 -3
c229 -1 337 1 337 8 0 6 -17 28 -38 48 l-38 37 -276 0 -276 0 -31 -39z"/>
<path d="M6530 3932 c0 -4 23 -27 50 -51 l50 -44 0 -183 0 -184 165 0 165 0 0
235 0 235 -215 0 c-118 0 -215 -3 -215 -8z"/>
<path d="M6451 3605 c1 -55 4 -90 7 -78 6 20 13 21 75 20 l67 -2 0 77 0 76
-75 4 -75 3 1 -100z"/>
<path d="M6990 3610 c0 -64 3 -90 10 -80 7 11 27 15 74 15 74 0 76 1 76 97 l0
56 -80 4 -80 3 0 -95z"/>
<path d="M7327 4092 c-20 -21 -37 -46 -37 -56 0 -15 3 -16 15 -6 9 7 37 11 74
8 59 -3 60 -3 65 26 12 61 9 66 -37 66 -37 0 -48 -6 -80 -38z"/>
<path d="M7550 4075 c-30 -30 -49 -55 -43 -55 7 0 15 5 18 10 5 7 84 10 231 9
124 0 228 2 231 5 4 4 -11 24 -32 46 l-39 40 -156 0 -156 0 -54 -55z"/>
<path d="M7833 3692 c-3 -7 -2 -52 3 -100 4 -48 9 -79 11 -70 5 19 49 31 103
26 l35 -3 3 77 3 76 -77 4 c-55 2 -78 -1 -81 -10z"/>
<path d="M7290 3608 c0 -80 2 -89 14 -73 11 15 22 17 73 12 l61 -6 6 31 c3 17
6 52 6 79 l0 49 -80 0 -80 0 0 -92z"/>
<path d="M7460 955 c-24 -29 8 -75 44 -62 30 12 14 77 -20 77 -6 0 -17 -7 -24
-15z"/>
<path d="M9024 956 c-3 -8 -4 -25 -2 -38 2 -17 9 -23 28 -23 22 0 25 4 25 35
0 29 -4 36 -23 38 -13 2 -24 -3 -28 -12z"/>
<path d="M10324 956 c-3 -8 -4 -25 -2 -38 2 -17 9 -23 28 -23 20 0 26 6 28 29
5 39 -41 66 -54 32z"/>
<path d="M10940 955 c-24 -29 8 -75 44 -62 30 12 14 77 -20 77 -6 0 -17 -7
-24 -15z"/>
<path d="M11954 956 c-3 -8 -4 -25 -2 -38 2 -17 9 -23 28 -23 22 0 25 4 25 35
0 29 -4 36 -23 38 -13 2 -24 -3 -28 -12z"/>
<path d="M7280 900 c0 -5 9 -10 20 -10 11 0 20 5 20 10 0 6 -9 10 -20 10 -11
0 -20 -4 -20 -10z"/>
<path d="M7655 960 c-4 -6 5 -10 20 -10 15 0 24 4 20 10 -3 6 -12 10 -20 10
-8 0 -17 -4 -20 -10z"/>
<path d="M10560 900 c0 -5 9 -10 19 -10 11 0 23 5 26 10 4 6 -5 10 -19 10 -14
0 -26 -4 -26 -10z"/>
<path d="M11585 960 c-4 -6 5 -10 20 -10 15 0 24 4 20 10 -3 6 -12 10 -20 10
-8 0 -17 -4 -20 -10z"/>
</g>
</svg>
